<svg width="19" height="24" viewBox="0 0 19 24" fill="none" xmlns="http://www.w3.org/2000/svg">
<path d="M19 15.0698H16.4854V15.0705V17.0234V22.0464H18.4414V24H16.4854H14.5294V17.0234H12.5738V24H10.6177V17.0234H8.38226V24H6.42662V17.0234H4.47061V24H2.5146H0.558965V22.0464H2.5146V17.0234V15.0705V15.0698H0V6.41871H1.95601V4.46511H2.5146H3.63253V2.51151H5.58817V0H7.54418V2.51151H11.4558V0H13.4118V2.51151H15.3678V4.46511H16.4854H17.0444V6.41871H19V15.0698ZM6.14603 12.9759V15.0698V15.0705H12.854V15.0698V12.9759H11.7346H7.2658H6.14603ZM4.74898 10.8846H7.2658V8.09206H4.74898V10.8846ZM14.251 10.8846V8.09206H11.7346V10.8846H14.251Z" fill="white"/>
</svg>
